<?xml version="1.0" encoding="UTF-8"?>
<svg xmlns="http://www.w3.org/2000/svg" xmlns:xlink="http://www.w3.org/1999/xlink" width="600px" height="600px" viewBox="0 0 600 600" version="1.1">
<defs>
<filter id="alpha" filterUnits="objectBoundingBox" x="0%" y="0%" width="100%" height="100%">
  <feColorMatrix type="matrix" in="SourceGraphic" values="0 0 0 0 1 0 0 0 0 1 0 0 0 0 1 0 0 0 1 0"/>
</filter>
<mask id="mask0">
  <g filter="url(#alpha)">
<rect x="0" y="0" width="600" height="600" style="fill:rgb(0%,0%,0%);fill-opacity:0.2;stroke:none;"/>
  </g>
</mask>
<clipPath id="clip1">
  <rect x="0" y="0" width="600" height="600"/>
</clipPath>
<g id="surface5" clip-path="url(#clip1)">
<path style=" stroke:none;fill-rule:nonzero;fill:rgb(100%,100%,100%);fill-opacity:1;" d="M 576.414062 183.226562 C 561.308594 147.503906 539.683594 115.414062 512.144531 87.863281 C 484.585938 60.324219 452.488281 38.691406 416.78125 23.585938 C 379.796875 7.941406 340.5 0 300 0 C 295.816406 0 291.648438 0.09375 287.503906 0.257812 C 323.585938 1.722656 358.59375 9.550781 391.773438 23.585938 C 427.511719 38.691406 459.59375 60.328125 487.132812 87.863281 C 514.671875 115.414062 536.316406 147.503906 551.417969 183.226562 C 567.074219 220.214844 574.984375 259.507812 574.984375 300 C 574.984375 340.503906 567.074219 379.796875 551.417969 416.785156 C 536.3125 452.492188 514.671875 484.589844 487.132812 512.128906 C 459.59375 539.6875 427.511719 561.308594 391.773438 576.414062 C 358.59375 590.441406 323.582031 598.277344 287.503906 599.742188 C 291.648438 599.910156 295.816406 600 300 600 C 340.5 600 379.796875 592.054688 416.78125 576.414062 C 452.488281 561.308594 484.585938 539.683594 512.144531 512.128906 C 539.683594 484.589844 561.308594 452.492188 576.414062 416.785156 C 592.050781 379.796875 600 340.503906 600 300 C 600 259.507812 592.050781 220.214844 576.414062 183.226562 Z M 576.414062 183.226562 "/>
</g>
<mask id="mask1">
  <g filter="url(#alpha)">
<rect x="0" y="0" width="600" height="600" style="fill:rgb(0%,0%,0%);fill-opacity:0.101961;stroke:none;"/>
  </g>
</mask>
<clipPath id="clip2">
  <rect x="0" y="0" width="600" height="600"/>
</clipPath>
<g id="surface8" clip-path="url(#clip2)">
<path style=" stroke:none;fill-rule:nonzero;fill:rgb(0%,0%,0%);fill-opacity:1;" d="M 23.585938 416.785156 C 38.691406 452.492188 60.324219 484.585938 87.863281 512.125 C 115.410156 539.683594 147.5 561.308594 183.226562 576.414062 C 220.214844 592.050781 259.507812 600 300 600 C 304.183594 600 308.351562 599.90625 312.496094 599.742188 C 276.414062 598.277344 241.398438 590.441406 208.21875 576.414062 C 172.496094 561.308594 140.414062 539.683594 112.867188 512.125 C 85.320312 484.585938 63.695312 452.488281 48.578125 416.785156 C 32.933594 379.796875 25.003906 340.503906 25.003906 300 C 25.003906 259.507812 32.933594 220.210938 48.578125 183.222656 C 63.691406 147.5 85.320312 115.410156 112.867188 87.875 C 140.414062 60.324219 172.496094 38.691406 208.21875 23.585938 C 241.398438 9.550781 276.414062 1.722656 312.496094 0.257812 C 308.347656 0.09375 304.183594 0 300 0 C 259.503906 0 220.210938 7.9375 183.222656 23.585938 C 147.5 38.691406 115.410156 60.328125 87.863281 87.875 C 60.324219 115.414062 38.691406 147.503906 23.582031 183.226562 C 7.9375 220.214844 0 259.507812 0 300 C 0 340.5 7.9375 379.796875 23.585938 416.785156 Z M 23.585938 416.785156 "/>
</g>
</defs>
<g id="surface1">
<path style=" stroke:none;fill-rule:nonzero;fill:rgb(92.941176%,33.333333%,39.215686%);fill-opacity:1;" d="M 576.414062 183.226562 C 561.308594 147.503906 539.683594 115.414062 512.144531 87.863281 C 484.585938 60.324219 452.488281 38.691406 416.78125 23.585938 C 379.796875 7.941406 340.5 0 300 0 C 259.503906 0 220.210938 7.9375 183.222656 23.585938 C 147.5 38.691406 115.410156 60.328125 87.863281 87.863281 C 60.324219 115.414062 38.691406 147.503906 23.582031 183.226562 C 7.9375 220.214844 0 259.507812 0 300 C 0 340.5 7.9375 379.796875 23.585938 416.785156 C 38.691406 452.492188 60.324219 484.585938 87.863281 512.125 C 115.410156 539.683594 147.5 561.308594 183.226562 576.414062 C 220.214844 592.050781 259.507812 600 300 600 C 340.503906 600 379.796875 592.050781 416.785156 576.414062 C 452.492188 561.308594 484.585938 539.683594 512.144531 512.125 C 539.683594 484.585938 561.308594 452.488281 576.414062 416.785156 C 592.054688 379.796875 600 340.5 600 300 C 600 259.507812 592.050781 220.214844 576.414062 183.226562 Z M 576.414062 183.226562 "/>
<path style=" stroke:none;fill-rule:nonzero;fill:rgb(90.196078%,91.372549%,92.941176%);fill-opacity:1;" d="M 0.121094 308.421875 C 1.144531 345.941406 9.019531 382.359375 23.585938 416.785156 C 38.691406 452.492188 60.324219 484.585938 87.863281 512.125 C 115.410156 539.683594 147.5 561.308594 183.226562 576.414062 C 220.214844 592.050781 259.507812 600 300 600 C 340.503906 600 379.796875 592.050781 416.785156 576.414062 C 452.492188 561.308594 484.585938 539.683594 512.144531 512.125 C 539.683594 484.585938 561.308594 452.488281 576.414062 416.785156 C 590.992188 382.359375 598.863281 345.941406 599.890625 308.421875 Z M 0.121094 308.421875 "/>
<path style=" stroke:none;fill-rule:nonzero;fill:rgb(26.27451%,29.019608%,32.941176%);fill-opacity:1;" d="M 598.570312 329.554688 C 599.523438 319.773438 600 309.925781 600 300 C 600 288.847656 599.394531 277.789062 598.203125 266.847656 C 583.300781 269.148438 561.894531 272.140625 534.925781 275.113281 C 483.726562 280.765625 401.4375 287.503906 300 287.503906 C 198.566406 287.503906 116.273438 280.765625 65.085938 275.113281 C 38.105469 272.140625 16.707031 269.148438 1.804688 266.847656 C 0.605469 277.789062 0 288.851562 0 300 C 0 309.925781 0.476562 319.777344 1.429688 329.554688 C 50.097656 336.878906 157.324219 349.988281 300 349.988281 C 442.675781 349.988281 549.898438 336.878906 598.570312 329.554688 Z M 598.570312 329.554688 "/>
<path style=" stroke:none;fill-rule:nonzero;fill:rgb(90.196078%,91.372549%,92.941176%);fill-opacity:1;" d="M 362.511719 312.496094 C 362.511719 347.019531 334.511719 375 300 375 C 265.484375 375 237.496094 347.019531 237.496094 312.496094 C 237.496094 277.980469 265.484375 250.003906 300 250.003906 C 334.511719 250.003906 362.511719 277.980469 362.511719 312.496094 Z M 362.511719 312.496094 "/>
<path style=" stroke:none;fill-rule:nonzero;fill:rgb(26.27451%,29.019608%,32.941176%);fill-opacity:1;" d="M 300 199.996094 C 237.964844 199.996094 187.5 250.472656 187.5 312.496094 C 187.5 374.523438 237.964844 424.988281 300 424.988281 C 362.035156 424.988281 412.496094 374.523438 412.496094 312.496094 C 412.496094 250.472656 362.035156 199.996094 300 199.996094 Z M 300 362.511719 C 272.433594 362.511719 250.003906 340.0625 250.003906 312.496094 C 250.003906 284.929688 272.433594 262.5 300 262.5 C 327.574219 262.5 349.984375 284.929688 349.984375 312.496094 C 349.984375 340.0625 327.574219 362.511719 300 362.511719 Z M 300 362.511719 "/>
<use xlink:href="#surface5" mask="url(#mask0)"/>
<use xlink:href="#surface8" mask="url(#mask1)"/>
</g>
</svg>
