<svg height="64" viewBox="0 0 64 64" width="64" xmlns="http://www.w3.org/2000/svg"><g fill="none" fill-rule="evenodd"><path d="m17 17c0-7.7319865 6.2680135-14 14-14s14 6.2680135 14 14z" fill="#e43535"/><path d="m17 31c0-7.7319865 6.2680135-14 14-14s14 6.2680135 14 14z" fill="#ececec" transform="matrix(1 0 0 -1 0 48)"/><path d="m18 17h26" stroke="#595959" stroke-linecap="square" stroke-width="2"/><circle cx="31" cy="17" fill="#fff" r="4" stroke="#595959" stroke-linecap="round" stroke-width="2"/><path d="m3 47c0-7.7319865 6.2680135-14 14-14s14 6.2680135 14 14z" fill="#e43535"/><path d="m3 61c0-7.7319865 6.2680135-14 14-14s14 6.2680135 14 14z" fill="#ececec" transform="matrix(1 0 0 -1 0 108)"/><path d="m4 47h26" stroke="#595959" stroke-linecap="square" stroke-width="2"/><circle cx="17" cy="47" fill="#fff" r="4" stroke="#595959" stroke-linecap="round" stroke-width="2"/><path d="m33 47c0-7.7319865 6.2680135-14 14-14s14 6.2680135 14 14z" fill="#e43535"/><path d="m33 61c0-7.7319865 6.2680135-14 14-14s14 6.2680135 14 14z" fill="#ececec" transform="matrix(1 0 0 -1 0 108)"/><g stroke="#595959" stroke-width="2"><path d="m34 47h26" stroke-linecap="square"/><circle cx="47" cy="47" fill="#fff" r="4" stroke-linecap="round"/></g></g></svg>